<svg xmlns="http://www.w3.org/2000/svg" width="143" height="140" viewBox="0 0 143 140" fill="none">
  <path d="M56.0615 111.903L57.99 111.906L58.1889 124.746L56.1895 124.813L56.0615 111.903Z" fill="white"/>
  <path d="M98.811 112.612C99.5084 112.611 106.665 112.612 106.802 112.741L106.781 114.014L103.87 114.018L103.913 122.845L103.906 125.692L101.782 125.685L101.78 114.02L98.8259 113.996L98.811 112.612Z" fill="white"/>
  <path d="M88.2263 111.915L94.1145 112.185L94.1081 114.149L90.0044 114.044L89.9923 116.54C89.9909 116.918 89.9369 117.372 90.0443 117.73L93.4179 117.902L93.4083 119.858L90.0077 119.694L90.0051 121.801L90.0159 123.24L94.1726 123.418L94.1772 125.387L88.1931 125.105L88.2263 111.915Z" fill="white"/>
  <path d="M65.1874 111.698L68.1227 111.708C68.5472 111.712 69.0965 111.651 69.4437 111.927C70.5542 112.808 70.6192 114.923 70.7685 116.213L68.5708 116.227L68.508 113.775L65.8328 113.714L65.8851 122.753C66.6457 122.791 67.5919 122.838 68.3323 122.672L68.4313 122.345L68.5488 120.445L70.8101 120.436C70.7585 121.308 70.6632 122.568 70.2642 123.345C70.0307 123.799 69.6278 124.192 69.2808 124.564L66.2893 124.598C65.9799 124.597 65.5054 124.654 65.2247 124.557C65.0222 124.487 64.7672 124.271 64.6126 124.127C64.4283 123.955 64.0703 123.543 63.9794 123.312C63.8987 123.108 63.9276 122.734 63.928 122.517L63.9356 120.527L63.8875 112.968C64.2845 112.493 64.7189 112.101 65.1874 111.698Z" fill="white"/>
  <path d="M76.168 111.626L77.968 111.644L77.9823 117.685L81.3344 111.734C81.9962 111.627 82.8377 111.761 83.5167 111.792L79.9624 117.535L82.3928 122.65L83.5277 124.94L81.3138 124.9C81.0118 124.525 80.857 123.864 80.6526 123.417L78.6498 119.066L78.5808 119.098C78.4453 119.301 78.0207 119.791 77.9777 119.999C77.8973 120.389 77.9777 120.991 77.9775 121.4L77.9771 124.897L76.1614 124.886L76.168 111.626Z" fill="white"/>
  <path d="M33.1201 112.941L35.5766 112.859C36.3022 112.862 36.8107 113.015 37.3206 113.55C38.1905 114.463 37.992 116.022 37.9902 117.191L35.7859 117.303L35.7038 115.026C35.2177 114.853 33.9122 114.868 33.4285 115.082C33.2364 115.167 33.1387 115.325 33.0529 115.506L33.2064 121.988C33.2186 122.587 33.1217 123.841 33.4527 124.325C33.7129 124.485 33.888 124.497 34.1893 124.503C34.8237 124.515 35.3658 124.555 35.8513 124.092C36.069 123.49 35.9062 122.52 35.8779 121.87C35.8589 121.645 35.8521 121.525 35.9513 121.32L38.1404 121.189C38.1172 122.398 38.4418 123.886 37.8889 125.004C37.6065 125.575 37.086 125.986 36.4897 126.191C35.5555 126.513 33.1707 126.746 32.3198 126.257C31.6759 125.887 31.2677 125.273 31.1155 124.557C30.852 123.318 31.0155 121.834 30.9835 120.552C30.9401 118.814 30.7239 116.945 30.8748 115.218C30.9146 114.763 31.0267 114.358 31.297 113.985C31.7743 113.325 32.3441 113.078 33.1201 112.941Z" fill="white"/>
  <path d="M47.2716 112.243L48.5619 112.141C48.9125 112.465 49.4766 112.86 49.747 113.235C49.8977 113.444 49.9067 114.121 49.9309 114.392L50.2348 117.809L49.0129 119.125L51.0945 125.058L48.9451 125.215L47.5009 120.646C47.1335 120.315 46.0699 120.486 45.5461 120.498L45.6064 125.489L43.4129 125.558L42.9985 112.571L47.2716 112.243Z" fill="white"/>
  <path d="M46.5666 114.456L47.9438 114.402C47.9754 115.558 48.5147 117.022 47.8439 118.038C47.6616 118.314 47.268 118.27 46.9716 118.307L45.5574 118.413L45.3425 114.501L46.5666 114.456Z" fill="#121F5E"/>
  <path d="M93.5075 48.9449L95.116 46.684C104.359 53.0763 110.459 63.1005 112.487 74.0898C113.953 82.0372 112.955 90.0467 110.226 97.601C109.713 99.023 109.117 100.39 108.448 101.746C108.17 102.31 107.911 102.928 107.571 103.457C106.764 102.751 106.087 101.902 105.382 101.097C103.994 99.5119 102.636 97.8768 101.099 96.4325L101.105 94.9155L100.724 93.827C100.106 92.4967 98.892 91.5291 97.5202 91.0632C96.1946 90.613 94.5068 90.4949 93.2453 91.1357L93.126 91.1975C92.2015 90.0201 91.5089 88.5074 90.8623 87.1594C93.6203 86.2344 96.2833 84.9939 98.8727 83.672C100.732 82.7228 102.606 81.7358 104.37 80.618L109.91 76.9063C109.501 74.0951 108.92 71.1933 107.999 68.5024C106.406 63.8437 103.724 59.2392 100.495 55.5199C98.3837 53.0891 96.0003 50.9716 93.5075 48.9449Z" fill="#121F5E"/>
  <path d="M109.91 76.9066C110.239 80.7588 110.264 84.5624 109.656 88.3924C109.247 90.9651 108.543 93.4311 107.789 95.919C106.262 95.6038 104.72 95.4197 103.176 95.2071C102.506 95.1147 101.772 94.9304 101.105 94.9158L100.724 93.8273C100.106 92.4971 98.892 91.5294 97.5202 91.0635C96.1946 90.6133 94.5068 90.4952 93.2453 91.136L93.126 91.1978C92.2015 90.0205 91.5089 88.5078 90.8623 87.1597C93.6203 86.2347 96.2833 84.9942 98.8727 83.6724C100.732 82.7231 102.606 81.7361 104.37 80.6183L109.91 76.9066Z" fill="#EC7A3B"/>
  <path d="M90.8624 87.1594C89.5256 84.627 88.7984 81.6729 87.7686 78.9949L89.1446 77.2427C91.9716 73.3376 91.6967 67.7188 89.0685 63.7789C88.6659 63.1753 88.2228 62.611 87.7212 62.0865C87.4352 61.7873 86.7804 61.2808 86.6025 60.9518C86.3491 60.483 86.2829 59.4125 86.1726 58.8622L84.5283 50.0598C85.714 50.874 87.6203 51.8776 89.0703 51.9322C90.8343 51.9987 92.3234 50.0591 93.5078 48.9449C96.0005 50.9715 98.3839 53.0891 100.495 55.5199C103.724 59.2391 106.406 63.8437 108 68.5024C108.92 71.1932 109.501 74.0951 109.91 76.9063L104.37 80.6179C102.606 81.7357 100.732 82.7227 98.8728 83.672C96.2834 84.9938 93.6204 86.2342 90.8624 87.1594Z" fill="#FBCA57"/>
  <path d="M69.6174 127.74L83.5236 128.036L97.3162 128.939C105.107 129.718 112.787 131.024 120.408 132.817C124.765 133.841 129.123 134.976 133.372 136.387L139.916 138.756C140.823 139.136 141.784 139.493 142.627 140L135.469 138.578L120.742 136.272C105.141 134.196 89.4456 133.586 73.7235 133.433C54.1494 133.373 34.4796 134.524 15.1016 137.334L4.32164 139.117L0.373535 139.921C1.79254 139.09 3.50291 138.517 5.04186 137.951L10.7538 135.935C21.3356 132.539 32.4478 130.267 43.4968 129.096C52.1863 128.175 60.8866 127.874 69.6174 127.74Z" fill="white"/>
  <path d="M47.3694 102.491L46.5381 105.712L47.9065 105.605L50.2272 95.6806C50.8832 92.2044 51.2217 88.8022 52.2356 85.3866C52.4677 84.6047 52.6724 83.7673 52.997 83.018C53.2535 82.4263 53.7306 81.7273 54.3794 81.5216C55.2151 81.2568 56.3797 81.9912 57.1043 82.3606C59.4161 78.5582 61.8465 74.6111 65.3175 71.7407C64.2519 70.7703 63.2605 69.6819 62.2803 68.6253C58.6216 64.682 55.4205 60.2484 52.7404 55.5867L49.5936 49.9319C49.3484 49.4894 49.1836 48.8648 48.8756 48.481C48.7529 48.3281 48.6198 48.2445 48.4537 48.1482C46.7443 47.1581 45.5266 45.4366 44.7766 43.6498C43.9189 41.6058 43.888 39.188 44.7394 37.1364C45.754 34.6922 47.5226 33.1709 49.9147 32.1622C49.6542 31.604 49.077 31.0191 48.7335 30.476C47.313 28.2281 46.4045 26.1891 45.9732 23.5484C45.528 23.4765 44.822 23.7307 44.3799 23.8411L40.5115 24.8447C41.0882 22.4405 42.329 21.2851 44.3199 19.9469C44.2403 18.6641 44.2837 17.4158 44.5176 16.1509C45.0159 13.4554 46.5322 11.0698 48.8161 9.53269C51.4006 7.79331 54.9739 7.31578 57.9866 7.92502C60.4904 8.43135 62.7399 10.105 64.1098 12.2455C65.7661 14.8331 66.4827 18.1901 66.1661 21.233C66.0713 22.143 65.8133 23.0899 65.6134 23.9876C66.0521 24.3306 66.4261 24.6794 66.8017 25.0895L69.7316 23.4896C72.1692 22.4097 75.0963 21.7253 77.667 22.7195C81.3549 24.1458 83.7945 28.305 85.2876 31.7446C85.6624 31.5519 86.093 31.3554 86.4176 31.086C86.9257 30.6641 87.3812 29.9649 87.795 29.4414C87.6111 28.9473 87.4776 28.5069 87.5257 27.9724C87.6347 26.7613 88.8782 25.5096 89.805 24.7965C90.4618 24.2912 91.0195 24.0711 91.8414 24.1934C92.0425 24.2232 93.2498 22.4349 94.8105 22.1728C95.5159 22.0543 95.9323 22.1278 96.5025 22.5578L96.609 22.6393C97.9811 21.2335 99.1308 19.3716 100.329 17.8007L109.358 5.99195L112.307 2.17034C112.882 1.43538 113.425 0.673403 114.074 0C115.264 0.554892 116.221 1.40499 117.004 2.44958C118.47 4.40465 119.152 6.90581 118.79 9.33901L118.763 9.51053C118.646 10.3377 118.384 11.5268 117.921 12.2363C117.62 12.6967 117.183 13.11 116.824 13.53L114.751 16.0148L105.291 27.2401L103.512 29.2563C103.343 29.4438 102.924 29.8137 102.828 30.03C102.772 30.1555 102.839 30.6521 102.844 30.803C102.864 31.3596 102.873 31.8989 102.761 32.4472C102.49 33.7664 101.768 34.6066 100.685 35.3266C100.793 35.5982 100.899 35.8742 100.954 36.1625C101.295 37.9517 100.471 40.2765 99.4756 41.7527C98.5299 43.1547 96.9505 44.8487 95.1979 45.1489L95.0669 45.1683C94.6264 45.236 94.2418 45.2369 93.8009 45.1985L93.6575 45.1851L92.3451 47.3484C91.7756 48.1028 90.0478 49.863 89.0618 49.9553C88.5295 50.0053 87.8721 49.689 87.3864 49.485C85.4597 48.6752 83.8257 47.6202 82.1842 46.34L82.6895 49.8841L84.1501 58.3562C84.3525 59.5133 84.4145 60.9545 84.7987 62.0385C84.8689 62.2364 85.2326 62.4499 85.4017 62.5878C87.4094 64.2257 88.9405 66.8685 89.1842 69.4618C89.4226 71.998 88.8751 74.2383 87.49 76.3787C86.9765 77.172 86.3287 77.8994 85.727 78.6275L87.0034 82.7525C88.3756 86.6101 90.2794 90.4129 92.5111 93.8367L93.0378 93.2868C93.7274 92.6286 94.9542 92.6378 95.8535 92.6656C96.9539 92.6994 97.8116 93.1141 98.5613 93.9221C99.0353 94.4328 99.3625 94.9871 99.3281 95.7009L99.2589 97.221C99.9723 98.2616 101.005 99.1946 101.862 100.126L105.24 104.022L106.326 105.382C106.482 105.596 106.679 105.98 106.922 106.081C107.378 106.271 108.219 106.272 108.742 106.358L114.267 107.327C120.464 108.518 126.643 110.034 132.645 111.986C134.602 112.622 136.654 113.258 138.485 114.208L122.89 111.135L98.7462 107.948C92.3895 107.356 85.953 107.361 79.5727 107.262L52.1312 107.691L41.2777 108.452C28.3282 109.43 15.4239 110.973 2.80933 114.153C3.78479 113.399 5.36882 113.038 6.53955 112.635C16.0367 109.364 26.0961 107.632 36.0427 106.428C35.1772 104.918 34.2447 103.459 33.473 101.895C29.688 94.2246 27.9004 85.5076 28.9042 76.9716C29.9882 67.7551 33.9311 59.2026 40.5419 52.6436C42.0792 51.1185 43.7897 49.7717 45.4857 48.4311C46.2256 48.9465 47.0186 49.4323 47.5964 50.1341C50.4272 55.1378 53.1182 60.1521 56.591 64.7582C57.5826 66.0734 58.6041 67.3845 59.711 68.6048L61.6855 70.694C61.9923 71.0164 62.3895 71.354 62.6064 71.738C61.0686 73.35 59.6418 74.9841 58.3748 76.8216L57.062 78.8353C56.8301 79.2053 56.6098 79.6462 56.3152 79.9645C55.1765 79.7711 53.966 79.5781 52.9404 80.2697L52.6603 80.479C51.472 81.7021 51.0608 83.0533 50.5963 84.6464L49.5125 89.1568L48.6438 95.4995L48.8941 95.7607C48.7545 96.8195 48.4344 97.9129 48.1553 98.9443L47.5892 101.527C47.5298 101.791 47.4868 102.259 47.3694 102.491Z" fill="#121F5E"/>
  <path d="M91.4953 40.4924C91.8459 40.528 92.0004 40.4761 92.2443 40.7423C92.2441 41.1311 92.2653 41.3755 92.0214 41.6918L91.5189 41.6052C91.2361 41.2802 91.5675 41.2353 91.5721 40.8922C91.5738 40.7565 91.5209 40.6257 91.4953 40.4924Z" fill="#FEFEFE"/>
  <path d="M95.3602 31.3497C95.9252 31.0871 96.4008 30.9612 97.026 30.898L97.1597 31.2478L97.066 31.4257C96.281 31.5029 95.8467 31.6196 95.1777 32.0458L95.0518 31.6476L95.3602 31.3497Z" fill="#FEFEFE"/>
  <path d="M98.4329 30.0549L98.915 30.0369C99.2433 30.0611 99.3162 30.1556 99.5237 30.3985C99.5455 30.6987 99.5973 30.878 99.4648 31.1524L99.0914 31.2294C98.8955 31.2124 98.5611 31.2176 98.3932 31.1147C98.1685 30.9771 97.8678 30.5454 97.7971 30.2986L98.4329 30.0549Z" fill="#FEFEFE"/>
  <path d="M89.9553 32.4265L89.767 32.4703L88.343 30.956C88.5693 30.7069 88.758 30.5008 89.0532 30.3349C89.5234 30.8432 90.366 31.4964 90.6193 32.1259L89.9553 32.4265Z" fill="#FEFEFE"/>
  <path d="M96.404 33.1683L97.9721 33.3362C98.3093 33.6752 98.6042 34.0024 98.6595 34.4961L98.3647 34.7555L98.0509 34.6364C97.554 34.4461 97.0389 34.2994 96.5232 34.1695C96.1996 34.0879 95.7718 34.0444 95.5164 33.8203L95.5646 33.5966C95.7999 33.2924 96.0414 33.258 96.404 33.1683Z" fill="#FEFEFE"/>
  <path d="M95.7485 27.5302C96.2037 27.174 97.3804 27.1794 97.9649 27.2669C98.5016 27.3473 98.7696 27.859 99.0413 28.2732L99.107 28.3741L97.9175 28.512L96.9345 28.6517L95.7485 27.5302Z" fill="#FEFEFE"/>
  <path d="M90.1616 38.5936L90.2945 38.5946L90.3768 38.6936C90.1518 39.4225 90.0135 40.8105 89.3069 41.1791C88.9261 41.3776 88.294 41.069 87.8949 40.9556C87.7059 40.8869 87.6002 40.8449 87.4663 40.6924C87.9216 39.8827 89.3724 39.0771 90.1616 38.5936Z" fill="#FEFEFE"/>
  <path d="M63.8222 25.3015L63.8511 25.3515C63.7949 25.8226 63.5762 26.3103 63.4037 26.7507C62.988 27.8115 62.2806 29.4893 61.4261 30.2527C60.9286 30.697 60.2478 30.9533 59.6433 31.2193L63.8222 25.3015Z" fill="#FEFEFE"/>
  <path d="M93.4106 24.938C94.0409 24.4127 94.7187 23.8776 95.4707 23.5408C96.0443 23.9922 96.4846 24.4054 96.9012 25.0124L95.7797 25.6574C95.3517 25.8143 94.9188 26.0836 94.5088 26.2901L93.4106 24.938Z" fill="#FEFEFE"/>
  <path d="M93.0749 40.9923L93.2322 40.9417C93.7557 40.8356 95.1409 41.2381 95.5401 41.5661C95.6733 42.1934 95.0418 43.2564 94.7054 43.7907C94.4915 43.8529 94.369 43.8352 94.1525 43.7907C94.1637 43.4355 94.3966 43.2352 94.3344 42.8912L93.268 42.5562L92.9194 42.4384C92.6282 42.2955 92.4383 42.0413 92.3577 41.7419C92.4295 41.4294 92.8293 41.189 93.0749 40.9923Z" fill="#FEFEFE"/>
  <path d="M56.7575 18.8031L56.9646 18.7875L56.5892 18.9175C54.7967 19.6492 52.776 20.0552 50.9109 20.6083C48.4709 21.3317 46.0389 22.2381 43.5467 22.762C43.3789 22.8068 43.387 22.8432 43.2263 22.7528C43.9753 22.0033 45.5616 21.6093 46.5672 21.3073C49.8921 20.3083 53.3617 19.5283 56.7575 18.8031Z" fill="#FEFEFE"/>
  <path d="M85.9729 41.8919L86.1212 41.9077C86.1396 42.4952 85.422 43.5344 85.1883 44.1488C84.9159 44.8658 84.7652 45.6064 84.6339 46.3595C84.3412 46.3204 83.7044 45.7257 83.4369 45.5296L82.5479 44.917C83.6279 43.8274 84.6713 42.7242 85.9729 41.8919Z" fill="#AC2242"/>
  <path d="M60.2471 41.1668C60.6128 40.7488 60.9319 40.4838 61.4072 40.1957L67.683 41.5663L67.7556 41.7167L67.4311 42.1544C66.6208 42.1504 65.8047 42.0047 65.0016 41.8992L60.2471 41.1668Z" fill="#FEFEFE"/>
  <path d="M54.5908 83.8528C56.8137 84.8687 58.8082 86.0693 60.8796 87.3556C61.4649 87.719 62.1373 88.0372 62.6534 88.4889L62.4043 88.4647L56.8993 86.0451C56.0688 85.6836 55.2069 85.1982 54.3326 84.9794L54.2417 84.9584C54.318 84.5826 54.467 84.2158 54.5908 83.8528Z" fill="#FEFEFE"/>
  <path d="M53.7439 87.0195L62.6357 91.6551L62.433 91.663L53.3953 87.945L53.7439 87.0195Z" fill="#FEFEFE"/>
  <path d="M96.686 94.7611L96.8711 94.7236C97.1731 94.8545 97.3169 94.9796 97.5289 95.2295C97.2031 98.2971 95.5183 101.408 93.5394 103.712L93.2739 104.017L93.2046 104.006C94.9169 101.241 96.2379 97.9929 96.686 94.7611Z" fill="#FEFEFE"/>
  <path d="M94.819 94.5611L95.0988 94.5569C94.7262 95.5751 94.4572 96.628 94.0476 97.6334C92.8783 100.504 90.7827 102.787 88.1231 104.355L87.9148 104.368C88.3406 103.929 88.8595 103.581 89.3204 103.178C90.0126 102.573 90.672 101.893 91.2299 101.161C92.2583 99.8109 92.9335 98.3509 93.5617 96.7847C93.7931 96.2072 94.0116 95.3917 94.3548 94.8816C94.4658 94.7169 94.6477 94.6447 94.819 94.5611Z" fill="#FEFEFE"/>
  <path d="M93.6028 34.3389C94.8302 34.4231 96.0949 34.4581 97.2698 34.8638C97.6886 35.0085 98.0242 35.1285 98.2257 35.5467C98.1851 36.0611 98.0796 36.4725 97.7155 36.8525C96.2188 36.2075 94.4674 36.011 92.8789 35.6958C93.0596 35.208 93.3335 34.7808 93.6028 34.3389Z" fill="#FEFEFE"/>
  <path d="M89.0537 30.3351L89.0707 30.1201L89.3955 30.3989C89.5898 30.2444 89.7905 30.2906 90.0332 30.2824L89.4219 29.6489L89.5093 29.4714C90.5039 30.4755 91.2555 31.4627 92.0322 32.64C92.2777 32.3674 92.7182 32.2163 93.051 32.0527L94.8694 31.0845L95.3603 31.35L95.0519 31.6478L95.1778 32.0459C94.9458 32.3622 94.7027 32.4051 94.3671 32.5468L94.2205 32.6216C94.0846 32.6895 94.0111 32.7153 93.8674 32.7433C93.4932 32.8161 93.1176 32.992 92.768 33.1465L92.2321 33.4679L91.7116 33.8191L91.656 34.256C91.5941 34.3934 91.6366 34.3238 91.5175 34.4573C91.0344 33.9924 90.4781 33.4223 90.2171 32.7999C90.1429 32.6288 90.081 32.56 89.9559 32.4267L90.6199 32.1261C90.3666 31.4967 89.5239 30.8434 89.0537 30.3351Z" fill="white"/>
  <path d="M90.2168 32.7997L90.7195 32.4423C91.1654 32.7292 91.4654 33.7604 91.6558 34.2559C91.5938 34.3932 91.6364 34.3236 91.5172 34.4572C91.0341 33.9922 90.4778 33.4221 90.2168 32.7997Z" fill="#FEFEFE"/>
  <path d="M96.1697 41.0396C94.955 40.7771 93.6609 40.0559 92.4005 40.1407C91.8978 40.1745 91.4624 40.1845 91.029 39.8931C90.9059 39.5167 91.1298 38.9282 91.2193 38.5446C92.9458 38.4173 95.0353 38.7239 96.6614 39.3499C96.6512 40.0394 96.5886 40.4803 96.1697 41.0396Z" fill="#FEFEFE"/>
  <path d="M91.6597 36.3721C93.1438 36.3231 94.3781 36.5136 95.8165 36.839C96.2896 36.9459 96.888 37.0203 97.2656 37.3467C97.4889 37.5398 97.4879 37.6189 97.5332 37.8942C97.4197 38.2376 97.3098 38.4265 97.0645 38.6937C96.9516 38.7189 96.9102 38.7343 96.8009 38.7393C96.4997 38.7527 96.1609 38.6246 95.8664 38.5548L94.0625 38.1538C93.3201 38.0039 92.5677 37.9313 91.8176 37.8316C91.6109 37.804 91.335 37.8194 91.179 37.6795C91.2899 37.1982 91.4414 36.8136 91.6597 36.3721Z" fill="#FEFEFE"/>
  <path d="M99.8566 101.13L103.566 105.649L101.986 105.523L98.1482 105.185C98.9939 103.879 99.4243 102.607 99.8566 101.13Z" fill="#AC2242"/>
  <path d="M97.052 39.4269L97.77 38.6384C97.8585 38.5365 97.9111 38.4467 97.9447 38.3142C98.0392 37.9414 97.9817 37.5349 98.0822 37.1549C98.2062 36.6855 98.5756 36.0055 98.5204 35.533C98.4976 35.3365 98.3963 35.1462 98.3029 34.9752C98.4666 35.0473 98.5728 35.1217 98.7147 35.228L99.0593 35.1958C99.499 35.657 99.7533 36.6504 99.7459 37.2696C99.7245 39.035 98.5994 41.131 97.3157 42.3211C96.8022 42.7972 96.2681 43.1756 95.665 43.5284C95.8199 43.1564 96.004 42.772 96.108 42.383C96.2195 41.9663 96.2265 41.6309 96.5098 41.2761L96.5411 41.2587C97.1136 40.6452 97.122 40.2041 97.052 39.4269Z" fill="#FEFEFE"/>
  <path d="M54.9563 9.4013C55.9201 9.28458 56.8939 9.37792 57.8446 9.54683C55.0178 9.8187 51.6148 10.1493 49.3669 12.0928C47.5835 13.6347 47.5681 15.7332 47.4038 17.9078C47.405 18.2426 47.4226 18.5732 47.3445 18.9012L45.7798 19.3588C45.8352 17.1838 46.3005 14.5022 47.702 12.7626C49.65 10.3448 51.9836 9.71431 54.9563 9.4013Z" fill="#FEFEFE"/>
  <path d="M96.0775 25.9718C96.5316 25.7847 96.9668 25.616 97.4465 25.501C97.7118 25.241 97.8557 24.9955 98.265 25.0335C98.966 25.0985 99.8013 26.0479 100.166 26.5856C101.245 28.1807 101.834 30.5149 101.409 32.4168C101.257 33.099 100.981 33.607 100.514 34.1233L100.351 34.0961C100.087 33.4708 100.083 32.939 100.266 32.2971C100.568 31.2426 100.56 29.9021 99.9932 28.9401C99.7078 28.4304 98.9956 27.1454 98.4434 26.9608C97.6156 26.6844 96.248 26.7694 95.4658 27.1439C95.1682 27.0727 95.1002 26.9566 94.8882 26.7428L94.8934 26.5822L96.0775 25.9718Z" fill="#FEFEFE"/>
  <path d="M84.5019 80.7693C84.5584 80.8027 84.6248 80.8231 84.6714 80.8693C84.8343 81.0302 85.0906 82.3076 85.1681 82.5743C85.5811 83.9941 86.0856 85.3909 86.6483 86.7577C87.3039 88.3496 88.0483 89.9173 88.8984 91.4142L90.8443 94.557C91.093 94.9474 91.5475 95.4703 91.6556 95.9128C91.6942 96.0709 91.5071 96.3166 91.4313 96.4603L91.3306 96.4337C88.0023 93.116 86.0201 88.9962 84.7632 84.494C84.4923 83.5238 83.9958 81.6634 84.5019 80.7693Z" fill="#FEFEFE"/>
  <path d="M67.9839 42.5643C68.2058 42.271 68.4628 41.9211 68.7722 41.7174C69.3746 41.3208 70.2224 41.0533 70.881 40.7427L75.6057 38.4286L82.0573 35.1257C83.4963 34.3528 85.1629 33.1277 86.7352 32.6901L87.2061 33.0693C85.982 33.6518 84.8539 34.4719 83.6736 35.1431L75.7526 39.3916C73.2155 40.6704 70.7734 41.9436 67.9839 42.5643Z" fill="#FEFEFE"/>
  <path d="M63.2982 15.1838C63.612 15.1654 63.9756 15.1136 64.2801 15.191C64.4702 15.2393 64.5943 15.4478 64.6738 15.6164C65.1467 16.6171 65.3069 18.0607 65.41 19.1583C65.4436 19.5153 65.5124 19.9627 65.377 20.3041C65.1622 20.8467 64.1326 21.063 63.6123 21.2643L63.4276 21.2861C63.1911 21.2998 63.0426 21.2696 62.8717 21.1092C62.6566 20.9079 62.4877 20.6853 62.3902 20.4041C62.0856 19.5256 61.9592 18.5013 61.7534 17.5909C61.6253 17.0242 61.3802 16.4913 61.3606 15.9066C61.9392 15.3918 62.5626 15.3087 63.2982 15.1838Z" fill="#FBCA57"/>
  <path d="M63.8097 67.9026C62.8957 66.8606 62.0853 65.7065 61.2654 64.5889L56.1514 56.9261C54.7797 54.6898 53.4605 52.3889 51.863 50.304C52.9672 50.7725 53.8825 51.2378 55.0766 51.4745C55.6003 52.9772 56.3323 54.4406 57.0161 55.8765C58.1292 58.214 59.2878 60.5191 60.6249 62.738L62.7029 66.0762C63.0778 66.6601 63.5827 67.2447 63.8097 67.9026Z" fill="#FEFEFE"/>
  <path d="M53.1469 90.0534L63.6192 94.8886C62.98 94.886 62.0359 94.4115 61.4242 94.2052L53.9681 91.489L53.1612 95.3883L51.7512 101.113C51.5937 101.798 51.042 104.994 50.6428 105.414C50.3506 105.418 50.0326 105.502 49.8093 105.305L53.1469 90.0534Z" fill="#FEFEFE"/>
  <path d="M47.3691 102.491C46.7916 102.525 46.2435 102.674 45.6747 102.763C44.5079 102.946 43.2891 103.072 42.1081 103.103C41.4801 103.119 40.8507 103.166 40.2576 102.921C39.328 102.537 38.4457 101.881 37.5662 101.385C38.0631 101.004 39.0501 100.834 39.662 100.666C42.4707 99.8932 45.2685 99.3392 48.1549 98.944L47.5888 101.526C47.5294 101.791 47.4864 102.259 47.3691 102.491Z" fill="white"/>
  <path d="M84.2899 74.4729C84.3289 74.5119 84.3355 74.5737 84.3526 74.626L83.8345 75.6788C81.6742 79.7602 78.0659 83.3156 74.5639 86.2653C72.4573 88.0395 70.2416 89.8264 67.5725 90.6505C67.5692 90.0654 67.5754 89.4876 67.6235 88.9039C67.6303 88.8202 67.6369 88.4913 67.6645 88.436C67.7073 88.3501 68.7459 87.9355 68.88 87.8769C70.3553 87.2313 71.6694 86.3645 72.9742 85.4287C75.8142 83.3921 78.7737 81.1422 81.1515 78.5756C82.3328 77.3009 83.3346 75.9197 84.2899 74.4729Z" fill="#FEFEFE"/>
  <path d="M86.9116 42.0942C87.4551 42.4638 88.0863 42.7637 88.6846 43.0355L90.1663 42.2251C90.4588 42.5207 90.7822 42.8506 91.0102 43.2006C91.4118 43.8168 91.5179 44.242 92.1032 44.7459L92.2131 44.8388C91.6882 45.8221 91.1544 46.587 90.4152 47.4279C89.9189 47.8851 89.4529 48.2593 88.8677 48.5965L85.5066 47.0893C85.627 45.1781 86.0653 43.8089 86.9116 42.0942Z" fill="#F14749"/>
  <path d="M64.9748 25.601L65.1528 25.5873C65.5585 26.1544 65.6887 27.1842 65.8096 27.884C66.3143 30.8023 65.2543 33.6841 63.5707 36.0435L60.3689 34.6683C59.4635 34.2044 58.7187 33.7217 57.9487 33.0509L60.6638 32.123C61.2013 31.8869 61.7221 31.6203 62.1541 31.2157C63.5698 29.8895 64.2804 27.3675 64.9748 25.601Z" fill="#F14749"/>
  <path d="M79.1396 35.0802L78.6764 35.1362C78.3744 34.8472 78.2269 34.1867 78.074 33.7965L77.1257 31.6454C76.2722 29.902 75.2454 28.3023 74.1257 26.7196C71.8438 26.3522 69.6503 26.2043 67.3396 26.2487C69.6707 25.3642 72.4115 24.2753 74.9444 24.6146L75.1285 24.641C75.4563 24.6862 75.7735 24.7352 76.091 24.8313C79.5586 25.8809 82.0261 29.5114 83.6356 32.5403L82.5948 33.063C80.9769 30.148 77.8563 28.3331 74.9724 26.8989C76.9546 29.4481 78.435 31.8825 79.1396 35.0802Z" fill="#FEFEFE"/>
  <path d="M93.1689 25.1858L93.4106 24.9379L94.5087 26.29C94.9187 26.0835 95.3517 25.8142 95.7796 25.6573L96.0774 25.9718L94.8933 26.5822L94.8881 26.7428C95.1002 26.9567 95.1681 27.0728 95.4657 27.1439L95.6578 27.2725L95.699 27.5555L95.7487 27.5301L96.9347 28.6517L97.9177 28.512L98.8948 28.6697L99.2428 28.6727L99.542 29.1776C98.7364 29.192 97.8699 29.1436 97.0794 29.2973L96.8593 29.4988L96.9301 29.6561C97.001 29.8185 97.0274 29.951 97.0398 30.1287C96.5359 30.578 95.5121 30.7633 94.8689 31.0843L93.0505 32.0526C92.7177 32.216 92.2771 32.3672 92.0317 32.6398C91.255 31.4625 90.5034 30.4753 89.5088 29.4713C89.3023 29.1561 88.9581 28.7383 88.9803 28.3495C89.0253 27.5572 90.0339 26.6391 90.6193 26.1518C90.8856 25.9301 91.161 25.6331 91.5188 25.6963C92.1286 25.8038 92.5266 25.5509 93.0475 25.2557L93.1689 25.1858Z" fill="#FEFEFE"/>
  <path d="M93.1692 25.1858L93.4109 24.9379L94.509 26.29C94.919 26.0835 95.352 25.8142 95.7799 25.6573L96.0777 25.9718L94.8936 26.5822L94.8884 26.7428C95.1005 26.9567 95.1684 27.0728 95.466 27.1439L95.6581 27.2725L95.6993 27.5555L95.749 27.5301L96.935 28.6517L97.918 28.512L98.8951 28.6697C98.2986 28.7726 97.8065 28.8818 97.2504 29.1286L97.0805 29.2024L96.9792 29.2483C96.7134 29.2343 96.6766 29.1969 96.4551 29.042C96.1483 28.6553 95.8613 28.2331 95.4557 27.9455C94.523 27.4205 93.6601 26.1364 93.1692 25.1858Z" fill="white"/>
  <path d="M81.6746 64.4749L82.0244 64.4801C81.8751 64.5361 81.7306 64.5911 81.5746 64.6257C76.398 65.7716 72.287 69.4437 68.829 73.2671C67.0804 75.2003 65.4338 77.2148 63.9217 79.339C62.8353 80.8649 61.9648 82.6128 60.8009 84.0674C60.4899 84.1592 60.3382 84.0261 60.0452 83.9029L58.8188 83.3116L61.6202 78.6705C66.0498 72.5373 74.041 65.7036 81.6746 64.4749Z" fill="#FEFEFE"/>
  <path d="M55.9468 49.5478L55.8766 49.6985C54.6292 49.4558 53.4784 48.9681 52.3363 48.4196C50.6792 47.6237 49.2384 46.817 48.0849 45.3564C46.6959 43.5978 45.8234 41.4812 46.1109 39.2151C46.2862 37.8323 47.0028 36.7176 48.0927 35.8845C49.1662 35.0639 50.4434 34.3392 51.8383 34.57C52.1553 34.6224 52.5701 34.7293 52.7692 34.9956C52.3061 35.244 51.7948 35.3789 51.3294 35.6302C50.7022 35.9684 50.2167 36.4092 49.7099 36.8991L60.7006 39.8548C60.3176 40.1002 59.8559 40.4738 59.4195 40.5979L59.271 40.6365L48.6446 38.619C47.931 40.2421 47.4386 41.76 48.1291 43.4908C49.242 46.2812 52.9833 48.3824 55.6395 49.4368L55.9468 49.5478Z" fill="#FEFEFE"/>
  <path d="M99.7266 24.2742L98.4465 23.5248C99.9695 20.8906 102.108 18.5205 103.961 16.1081L114.741 1.99371L115.811 3.51823L111.944 8.54276L105.951 16.387L101.413 22.1823C100.857 22.867 100.332 23.6364 99.7266 24.2742Z" fill="#FEFEFE"/>
  <path d="M59.5143 20.2042L59.7238 20.201C59.8098 20.424 60.104 21.3677 60.058 21.559C60.0243 21.6993 59.5747 22.1123 59.4602 22.2358L56.9109 24.8909C56.5509 25.2325 55.3933 26.0568 55.2946 26.4506C55.4533 26.6751 55.54 26.7972 55.7895 26.9301C56.3116 26.6441 56.7668 26.1625 57.2041 25.7596C58.2965 24.7525 59.3127 23.691 60.2877 22.5708L60.6225 25.9961C60.645 26.2592 60.7709 26.8092 60.7163 27.0503C60.6971 27.1348 60.4642 27.3885 60.4067 27.4652L59.4682 28.7197C58.7108 29.7235 57.7088 31.0694 56.6344 31.7282C55.6172 32.3519 54.1877 32.7474 53.0173 32.9099C52.3239 32.1294 51.7025 31.3263 51.1573 30.4348L53.7327 29.7901C54.3933 29.6148 55.3607 29.3966 55.903 28.9764C56.0859 28.8347 56.1143 28.8203 56.1503 28.586C55.8146 28.4877 55.4619 28.6484 55.133 28.7311L52.9761 29.2083C52.1693 29.3538 51.3676 29.4473 50.5509 29.5149L49.3102 27.7151C51.3506 27.0165 53.3923 26.6945 55.3399 25.7075L48.959 26.7413C48.4687 25.6523 48.1481 24.5802 47.9502 23.4026C49.2962 23.2159 50.6666 22.8228 51.9852 22.489C54.5374 21.8429 57.0482 21.1309 59.5143 20.2042Z" fill="#FEFEFE"/>
  <path d="M115.81 3.51819C116.861 5.51163 117.045 8.62965 116.711 10.8422C115.965 11.9379 115.003 12.9212 114.137 13.9276L109.607 19.2049L104.748 25.0508C103.939 26.0332 103.184 27.0746 102.317 28.005C101.757 26.7056 100.996 25.0487 99.7261 24.2742C100.331 23.6363 100.856 22.867 101.412 22.1822L105.951 16.3869L111.944 8.54266L115.81 3.51819Z" fill="#FBCA57"/>
  <path d="M65.7424 99.8273L63.7831 105.141L61.9734 105.179C62.9258 102.265 63.9223 99.2176 65.1759 96.4223C65.7448 95.1538 66.4624 93.9569 67.0946 92.7194C67.5304 92.5437 67.9885 92.4528 68.4261 92.2719C69.9162 91.656 71.2852 90.935 72.6594 90.0938C75.4818 94.1754 78.7229 97.6972 82.3258 101.097L84.9639 103.519C85.4832 103.976 86.0647 104.413 86.5378 104.915L84.5578 104.904C84.4814 104.904 84.0551 104.931 84.0035 104.901C83.6607 104.697 83.2765 104.193 82.9583 103.919L78.3177 99.8478L65.7424 99.8273Z" fill="#FEFEFE"/>
  <path d="M67.926 95.1363C68.0791 94.8928 68.2582 94.5794 68.4957 94.4087C68.9373 94.0911 69.5751 93.9444 70.0688 93.7039C70.765 93.3651 71.4024 92.8616 72.0015 92.3749L74.1978 95.21L67.926 95.1363Z" fill="#FBCA57"/>
  <path d="M67.9257 95.1364L74.1974 95.2101L78.318 99.8481L65.7427 99.8275L67.9257 95.1364Z" fill="#EC7A3B"/>
  <path d="M87.2061 33.0693C88.3559 34.1968 89.088 35.4377 89.6241 36.9507C87.9171 38.4674 85.9994 39.7057 84.1531 41.0421L73.7347 48.2134C73.3491 48.4544 72.6149 49.0379 72.2052 49.1362C71.9205 49.2046 71.446 49.1466 71.1464 49.1494L68.7254 49.1482L57.3637 49.0117L57.2702 48.9562C57.1902 45.8831 58.4543 43.5829 60.2469 41.1667L65.0013 41.8991C65.8045 42.0046 66.6206 42.1503 67.4309 42.1543L66.3525 44.7097C66.9528 44.0542 67.3735 43.1668 67.9838 42.5643C70.7734 41.9437 73.2154 40.6704 75.7525 39.3917L83.6735 35.1432C84.8539 34.4719 85.982 33.6517 87.2061 33.0693Z" fill="#F14749"/>
  <path d="M47.5962 50.1339C50.427 55.1375 53.118 60.1518 56.5908 64.758C57.5825 66.0732 58.6039 67.3843 59.7108 68.6046L61.6853 70.6938C61.9921 71.0162 62.3893 71.3538 62.6062 71.7377C61.0684 73.3498 59.6417 74.9839 58.3746 76.8214L57.0618 78.8351C56.8299 79.205 56.6097 79.646 56.315 79.9643C55.1763 79.7709 53.9658 79.5779 52.9402 80.2695L52.6601 80.4788C51.4718 81.7019 51.0606 83.0531 50.5961 84.6461L49.5123 89.1566L49.2805 72.1742C49.1797 71.4226 49.2265 70.6177 49.2199 69.8585L49.1841 65.8312C49.1783 65.2864 49.2958 64.3301 49.0434 63.8464L47.7505 95.6216L45.788 96.0756L45.4948 72.8238L45.4163 65.6036C45.4005 63.9831 45.4309 62.3554 45.2374 60.7442C45.0871 61.856 45.1104 62.9805 45.0779 64.0998L44.963 71.0834L44.7141 96.2433L41.9132 96.8775L41.453 59.5813C40.9195 60.3787 40.8021 93.5527 40.793 97.1194L38.1003 97.9368L37.5349 62.28C37.2021 65.3942 37.2588 68.5628 37.1921 71.6924L36.9642 89.7108L36.9289 95.4814C36.928 96.3863 37.0372 97.4573 36.8941 98.3414L35.6662 98.91C34.9512 97.534 34.4245 96.0313 33.938 94.561C32.0411 88.8273 31.4222 82.6656 32.1974 76.6707C33.2042 68.8834 36.279 61.6156 41.4982 55.7074C43.3259 53.6382 45.4131 51.8173 47.5962 50.1339Z" fill="url(#paint0_linear_9_838)"/>
  <defs>
    <linearGradient id="paint0_linear_9_838" x1="62.5327" y1="72.017" x2="30.8328" y2="75.816" gradientUnits="userSpaceOnUse">
      <stop stop-color="#FE9F30"/>
      <stop offset="1" stop-color="#E05C51"/>
    </linearGradient>
  </defs>
</svg>