<svg xmlns="http://www.w3.org/2000/svg" width="74" height="72" viewBox="0 0 74 72" fill="none">
  <path d="M28.6396 57.5503L29.6315 57.5516L29.7337 64.1552L28.7055 64.1899L28.6396 57.5503Z" fill="#121F5E"/>
  <path d="M50.625 57.9149C50.9837 57.9144 54.664 57.9148 54.7347 57.981L54.724 58.6357L53.2269 58.6377L53.2488 63.1775L53.2451 64.6417L52.1529 64.6382L52.1518 58.6387L50.6326 58.6267L50.625 57.9149Z" fill="#121F5E"/>
  <path d="M45.1814 57.5564L48.2096 57.6954L48.2063 58.7055L46.0958 58.6513L46.0896 59.9351C46.0889 60.1295 46.0611 60.3625 46.1163 60.5468L47.8513 60.6352L47.8464 61.6414L46.0975 61.5569L46.0962 62.6405L46.1017 63.3808L48.2395 63.4723L48.2419 64.4847L45.1643 64.3396L45.1814 57.5564Z" fill="#121F5E"/>
  <path d="M33.3328 57.4448L34.8424 57.4497C35.0608 57.4518 35.3432 57.4207 35.5218 57.5623C36.0929 58.0156 36.1264 59.1031 36.2032 59.7666L35.0729 59.774L35.0406 58.5129L33.6648 58.4814L33.6917 63.13C34.0828 63.1495 34.5695 63.1737 34.9502 63.0885L35.0011 62.9203L35.0616 61.9431L36.2245 61.9382C36.198 62.3869 36.149 63.0347 35.9438 63.4343C35.8237 63.6682 35.6165 63.8701 35.438 64.0613L33.8995 64.0791C33.7404 64.0783 33.4964 64.1078 33.352 64.058C33.2479 64.022 33.1167 63.9108 33.0373 63.8366C32.9425 63.7481 32.7584 63.5362 32.7116 63.4177C32.6701 63.3126 32.685 63.1203 32.6852 63.0088L32.6891 61.9851L32.6643 58.0976C32.8685 57.8534 33.0919 57.6519 33.3328 57.4448Z" fill="#121F5E"/>
  <path d="M38.98 57.4077L39.9057 57.417L39.9131 60.5238L41.637 57.4632C41.9773 57.4079 42.4101 57.477 42.7593 57.4931L40.9314 60.4465L42.1813 63.0773L42.765 64.2546L41.6264 64.2344C41.4711 64.0412 41.3915 63.7014 41.2863 63.4717L40.2563 61.2337L40.2208 61.2504C40.1511 61.3546 39.9328 61.6067 39.9107 61.7137C39.8693 61.9145 39.9107 62.2237 39.9106 62.4341L39.9104 64.2325L38.9766 64.2272L38.98 57.4077Z" fill="#121F5E"/>
  <path d="M16.841 58.0837L18.1044 58.042C18.4776 58.0434 18.7391 58.1219 19.0013 58.3973C19.4487 58.867 19.3466 59.6683 19.3457 60.2696L18.212 60.3274L18.1698 59.1564C17.9198 59.0674 17.2484 59.075 16.9997 59.1851C16.9009 59.2288 16.8506 59.3101 16.8065 59.4031L16.8854 62.7369C16.8917 63.0446 16.8419 63.6898 17.0121 63.9384C17.1459 64.021 17.236 64.0273 17.3909 64.0302C17.7172 64.0365 17.996 64.0569 18.2457 63.8189C18.3576 63.5093 18.2739 63.0105 18.2593 62.6761C18.2496 62.5603 18.2461 62.4989 18.2971 62.3931L19.4229 62.3256C19.411 62.9475 19.5779 63.713 19.2936 64.288C19.1483 64.5816 18.8807 64.7927 18.574 64.8984C18.0935 65.0639 16.8671 65.1836 16.4294 64.9321C16.0983 64.7418 15.8884 64.426 15.8101 64.0581C15.6746 63.4208 15.7587 62.6573 15.7422 61.9982C15.7199 61.1043 15.6087 60.1429 15.6863 59.2549C15.7068 59.0212 15.7645 58.8127 15.9034 58.6207C16.1489 58.2817 16.442 58.1544 16.841 58.0837Z" fill="#121F5E"/>
  <path d="M24.119 57.7248L24.7825 57.6724C24.9629 57.8389 25.2529 58.042 25.392 58.2351C25.4695 58.3428 25.4742 58.6909 25.4866 58.8303L25.6429 60.5875L25.0145 61.2641L26.085 64.3152L24.9796 64.3962L24.2369 62.0466C24.0479 61.8765 23.501 61.9644 23.2315 61.9704L23.2626 64.5373L22.1345 64.5728L21.9214 57.8936L24.119 57.7248Z" fill="#121F5E"/>
  <path d="M23.7565 58.8631L24.4648 58.8352C24.481 59.4298 24.7583 60.183 24.4134 60.7054C24.3196 60.8474 24.1172 60.8247 23.9648 60.8436L23.2375 60.8979L23.127 58.8864L23.7565 58.8631Z" fill="#FEFEFE"/>
  <path d="M47.8975 25.1718L48.7247 24.009C53.4785 27.2965 56.6154 32.4518 57.6582 38.1034C58.4122 42.1907 57.899 46.3099 56.4958 50.1949C56.2316 50.9262 55.9253 51.6295 55.5814 52.3264C55.4381 52.6168 55.3048 52.9346 55.1301 53.2064C54.7152 52.8434 54.3669 52.4067 54.0044 51.9927C53.2905 51.1776 52.5924 50.3367 51.8019 49.5939L51.8046 48.8138L51.6088 48.254C51.2911 47.5699 50.6667 47.0722 49.9612 46.8326C49.2794 46.6011 48.4114 46.5403 47.7627 46.8699L47.7013 46.9017C47.2259 46.2962 46.8696 45.5182 46.5371 44.8249C47.9555 44.3492 49.3251 43.7112 50.6567 43.0314C51.6131 42.5433 52.5765 42.0356 53.4841 41.4608L56.3331 39.5519C56.1228 38.1062 55.8239 36.6138 55.3505 35.2299C54.5308 32.834 53.1517 30.466 51.4908 28.5532C50.4053 27.3031 49.1795 26.2141 47.8975 25.1718Z" fill="#121F5E"/>
  <path d="M56.3331 39.552C56.5021 41.5331 56.5152 43.4893 56.2023 45.459C55.9921 46.7821 55.6299 48.0503 55.2425 49.3298C54.4567 49.1677 53.6641 49.073 52.8699 48.9637C52.5254 48.9162 52.1477 48.8214 51.8046 48.8139L51.6088 48.2541C51.2911 47.5699 50.6667 47.0723 49.9612 46.8327C49.2794 46.6012 48.4114 46.5404 47.7627 46.87L47.7013 46.9018C47.2259 46.2963 46.8696 45.5183 46.5371 44.825C47.9555 44.3493 49.3251 43.7113 50.6567 43.0315C51.6131 42.5433 52.5765 42.0357 53.4841 41.4609L56.3331 39.552Z" fill="#EC7A3B"/>
  <path d="M46.5371 44.8248C45.8496 43.5224 45.4756 42.0032 44.946 40.6259L45.6536 39.7248C47.1075 37.7165 46.9661 34.8268 45.6145 32.8006C45.4074 32.4901 45.1795 32.1999 44.9216 31.9302C44.7745 31.7763 44.4377 31.5158 44.3463 31.3466C44.2159 31.1055 44.1819 30.555 44.1252 30.2719L43.2795 25.745C43.8893 26.1637 44.8697 26.6799 45.6154 26.7079C46.5226 26.7422 47.2884 25.7446 47.8975 25.1716C49.1795 26.2139 50.4053 27.3029 51.4908 28.5531C53.1517 30.4658 54.5308 32.8339 55.3505 35.2298C55.8238 36.6136 56.1228 38.106 56.3331 39.5518L53.4841 41.4606C52.5765 42.0355 51.613 42.5431 50.6567 43.0313C49.325 43.7111 47.9555 44.349 46.5371 44.8248Z" fill="#FBCA57"/>
  <path d="M35.6111 65.6946L42.7629 65.847L49.8562 66.3115C53.8628 66.7123 57.8129 67.3839 61.7319 68.3057C63.9725 68.8327 66.214 69.416 68.3991 70.1417L71.7647 71.3604C72.2311 71.5554 72.7256 71.739 73.1588 71.9999L69.4778 71.2689L61.9036 70.0826C53.8802 69.0151 45.8085 68.7015 37.7228 68.6227C27.6562 68.5917 17.5403 69.1837 7.57444 70.629L2.03045 71.5457L0 71.9593C0.729775 71.5318 1.60939 71.2374 2.40086 70.946L5.3384 69.9092C10.7805 68.163 16.4953 66.9943 22.1777 66.3921C26.6466 65.9184 31.121 65.7638 35.6111 65.6946Z" fill="#121F5E"/>
  <path d="M24.1693 52.7095L23.7418 54.3664L24.4455 54.3112L25.639 49.2072C25.9764 47.4194 26.1505 45.6697 26.6719 43.9131C26.7913 43.511 26.8965 43.0803 27.0635 42.695C27.1954 42.3907 27.4408 42.0312 27.7745 41.9254C28.2043 41.7892 28.8032 42.1669 29.1758 42.3569C30.3648 40.4013 31.6147 38.3714 33.3998 36.8952C32.8517 36.3961 32.3419 35.8364 31.8378 35.293C29.9561 33.265 28.3099 30.9849 26.9315 28.5874L25.3132 25.6793C25.187 25.4517 25.1023 25.1305 24.9439 24.9331C24.8808 24.8545 24.8124 24.8115 24.7269 24.7619C23.8478 24.2528 23.2216 23.3674 22.8359 22.4485C22.3948 21.3973 22.3788 20.1538 22.8167 19.0987C23.3385 17.8417 24.2481 17.0593 25.4783 16.5406C25.3443 16.2535 25.0475 15.9527 24.8709 15.6734C24.1403 14.5173 23.673 13.4687 23.4512 12.1106C23.2223 12.0736 22.8592 12.2044 22.6318 12.2611L20.6424 12.7773C20.9389 11.5408 21.5771 10.9466 22.601 10.2584C22.5601 9.59865 22.5824 8.95667 22.7026 8.30616C22.9589 6.91993 23.7387 5.69304 24.9133 4.90253C26.2425 4.00799 28.0802 3.7624 29.6296 4.07572C30.9172 4.33612 32.0741 5.19685 32.7787 6.29771C33.6304 7.62844 33.999 9.35491 33.8362 10.9198C33.7874 11.3878 33.6547 11.8748 33.5519 12.3365C33.7775 12.5129 33.9699 12.6923 34.1631 12.9032L35.6699 12.0804C36.9235 11.525 38.4289 11.173 39.7509 11.6843C41.6475 12.4179 42.9022 14.5569 43.6701 16.3258C43.8628 16.2267 44.0843 16.1257 44.2512 15.9871C44.5125 15.7701 44.7468 15.4105 44.9596 15.1413C44.865 14.8872 44.7964 14.6607 44.8211 14.3858C44.8771 13.763 45.5167 13.1192 45.9933 12.7525C46.3311 12.4926 46.6179 12.3794 47.0406 12.4423C47.1441 12.4576 47.7649 11.5379 48.5676 11.4032C48.9303 11.3422 49.1445 11.38 49.4377 11.6011L49.4925 11.6431C50.1982 10.9201 50.7894 9.96256 51.4058 9.15465L56.049 3.08158L57.5658 1.11618C57.8616 0.738196 58.1406 0.346321 58.4743 0C59.0867 0.285373 59.5785 0.722565 59.9814 1.25978C60.7352 2.26525 61.0859 3.55156 60.8999 4.80292L60.8861 4.89113C60.826 5.31651 60.691 5.92804 60.4528 6.29297C60.2983 6.52971 60.0734 6.74229 59.889 6.95827L58.8228 8.23616L53.9578 14.0092L53.0427 15.0461C52.9555 15.1425 52.7402 15.3328 52.6907 15.444C52.6619 15.5086 52.6965 15.7639 52.6991 15.8415C52.7093 16.1278 52.7141 16.4052 52.6563 16.6871C52.5172 17.3656 52.1458 17.7977 51.5889 18.168C51.6445 18.3077 51.6986 18.4496 51.7269 18.5979C51.9022 19.518 51.4789 20.7136 50.9668 21.4728C50.4804 22.1938 49.6681 23.065 48.7668 23.2194L48.6994 23.2294C48.4729 23.2642 48.2751 23.2647 48.0483 23.2449L47.9746 23.238L47.2997 24.3506C47.0068 24.7386 46.1182 25.6438 45.6111 25.6913C45.3374 25.717 44.9993 25.5544 44.7495 25.4494C43.7586 25.033 42.9182 24.4904 42.0741 23.832L42.3339 25.6547L43.0851 30.0118C43.1892 30.6069 43.2211 31.348 43.4187 31.9055C43.4547 32.0073 43.6418 32.1171 43.7288 32.188C44.7613 33.0303 45.5487 34.3895 45.674 35.7232C45.7967 37.0275 45.5151 38.1797 44.8027 39.2804C44.5386 39.6885 44.2055 40.0625 43.8961 40.437L44.5525 42.5584C45.2582 44.5424 46.2373 46.4981 47.385 48.2589L47.6559 47.9761C48.0105 47.6376 48.6415 47.6423 49.104 47.6566C49.6699 47.674 50.111 47.8873 50.4966 48.3028C50.7403 48.5654 50.9086 48.8505 50.8909 49.2176L50.8553 49.9994C51.2222 50.5345 51.7532 51.0144 52.194 51.4936L53.9313 53.4973L54.4896 54.1963C54.5698 54.3065 54.6714 54.5039 54.7966 54.556C55.0311 54.6536 55.4632 54.6544 55.7322 54.6986L58.5737 55.1968C61.7607 55.8095 64.9386 56.5888 68.0254 57.5927C69.0318 57.9201 70.0871 58.2467 71.0286 58.7353L63.0086 57.1552L50.5917 55.5161C47.3225 55.2119 44.0123 55.2142 40.731 55.1633L26.6182 55.384L21.0364 55.7755C14.3767 56.2782 7.74016 57.0717 1.25269 58.7073C1.75435 58.3193 2.569 58.1339 3.17108 57.9264C8.05532 56.2443 13.2287 55.3538 18.3441 54.7346C17.899 53.9577 17.4195 53.2074 17.0226 52.4033C15.076 48.4584 14.1567 43.9753 14.6729 39.5854C15.2304 34.8455 17.2582 30.4471 20.658 27.0739C21.4486 26.2895 22.3283 25.5969 23.2005 24.9074C23.5811 25.1725 23.9889 25.4223 24.2861 25.7832C25.7419 28.3566 27.1258 30.9353 28.9118 33.3042C29.4218 33.9806 29.9471 34.6549 30.5164 35.2825L31.5319 36.3569C31.6896 36.5227 31.8939 36.6963 32.0054 36.8938C31.2146 37.7229 30.4808 38.5633 29.8292 39.5083L29.1541 40.5439C29.0348 40.7341 28.9215 40.9609 28.77 41.1246C28.1844 41.0252 27.5618 40.9259 27.0344 41.2816L26.8903 41.3892C26.2792 42.0182 26.0677 42.7131 25.8288 43.5324L25.2715 45.8521L24.8247 49.114L24.9534 49.2484C24.8816 49.7929 24.717 50.3552 24.5735 50.8856L24.2823 52.2138C24.2518 52.3497 24.2297 52.5904 24.1693 52.7095Z" fill="#121F5E"/>
  <path d="M46.8627 20.8247C47.043 20.843 47.1225 20.8163 47.2479 20.9532C47.2478 21.1532 47.2587 21.2789 47.1333 21.4415L46.8748 21.397C46.7294 21.2298 46.8998 21.2067 46.9022 21.0303C46.9031 20.9605 46.8759 20.8933 46.8627 20.8247Z" fill="#FEFEFE"/>
  <path d="M48.8503 16.1227C49.1409 15.9876 49.3854 15.9229 49.707 15.8904L49.7757 16.0703L49.7275 16.1618C49.3238 16.2015 49.1005 16.2615 48.7564 16.4807L48.6917 16.2759L48.8503 16.1227Z" fill="#FEFEFE"/>
  <path d="M50.4305 15.4567L50.6785 15.4475C50.8472 15.46 50.8848 15.5086 50.9915 15.6335C51.0027 15.7879 51.0293 15.8801 50.9612 16.0212L50.7691 16.0608C50.6684 16.052 50.4964 16.0547 50.4101 16.0018C50.2945 15.931 50.1399 15.709 50.1035 15.5821L50.4305 15.4567Z" fill="#FEFEFE"/>
  <path d="M46.0706 16.6765L45.9738 16.699L45.2415 15.9202C45.3578 15.7921 45.4549 15.6861 45.6067 15.6008C45.8485 15.8623 46.2819 16.1982 46.4121 16.5219L46.0706 16.6765Z" fill="#FEFEFE"/>
  <path d="M49.3872 17.0579L50.1936 17.1442C50.3671 17.3185 50.5187 17.4868 50.5471 17.7407L50.3955 17.8742L50.2341 17.8129C49.9786 17.715 49.7137 17.6396 49.4485 17.5728C49.282 17.5308 49.062 17.5084 48.9307 17.3932L48.9555 17.2782C49.0765 17.1217 49.2007 17.104 49.3872 17.0579Z" fill="#FEFEFE"/>
  <path d="M49.05 14.1583C49.2841 13.9751 49.8893 13.9779 50.1899 14.0229C50.4659 14.0643 50.6038 14.3274 50.7434 14.5404L50.7773 14.5923L50.1655 14.6633L49.66 14.7351L49.05 14.1583Z" fill="#FEFEFE"/>
  <path d="M46.1767 19.8481L46.245 19.8487L46.2874 19.8996C46.1716 20.2745 46.1005 20.9883 45.7371 21.1779C45.5413 21.2799 45.2162 21.1212 45.0109 21.0629C44.9138 21.0276 44.8594 21.006 44.7905 20.9275C45.0247 20.5111 45.7708 20.0968 46.1767 19.8481Z" fill="#FEFEFE"/>
  <path d="M32.6309 13.0122L32.6457 13.0379C32.6168 13.2802 32.5043 13.531 32.4156 13.7575C32.2018 14.303 31.838 15.166 31.3985 15.5585C31.1427 15.787 30.7926 15.9188 30.4817 16.0556L32.6309 13.0122Z" fill="#FEFEFE"/>
  <path d="M47.8477 12.8253C48.1718 12.5551 48.5204 12.2799 48.9071 12.1067C49.2021 12.3388 49.4286 12.5513 49.6428 12.8635L49.066 13.1952C48.8459 13.2759 48.6233 13.4144 48.4124 13.5206L47.8477 12.8253Z" fill="#FEFEFE"/>
  <path d="M47.675 21.0818L47.7559 21.0558C48.0251 21.0012 48.7375 21.2082 48.9428 21.3769C49.0113 21.6995 48.6866 22.2462 48.5135 22.521C48.4035 22.5529 48.3405 22.5439 48.2292 22.521C48.235 22.3383 48.3547 22.2353 48.3228 22.0584L47.7743 21.8861L47.595 21.8255C47.4453 21.752 47.3476 21.6213 47.3062 21.4673C47.3431 21.3066 47.5487 21.1829 47.675 21.0818Z" fill="#FEFEFE"/>
  <path d="M28.9975 9.67014L29.104 9.66211L28.9109 9.72893C27.989 10.1053 26.9498 10.314 25.9906 10.5985C24.7358 10.9705 23.485 11.4367 22.2034 11.7061C22.117 11.7292 22.1212 11.7479 22.0386 11.7014C22.4238 11.3159 23.2396 11.1133 23.7567 10.958C25.4667 10.4442 27.2511 10.0431 28.9975 9.67014Z" fill="#FEFEFE"/>
  <path d="M44.0224 21.5444L44.0987 21.5526C44.1081 21.8547 43.7391 22.3891 43.619 22.7051C43.4788 23.0739 43.4013 23.4547 43.3338 23.8421C43.1833 23.8219 42.8558 23.5161 42.7182 23.4153L42.261 23.1002C42.8164 22.5398 43.353 21.9725 44.0224 21.5444Z" fill="#AC2242"/>
  <path d="M30.792 21.1715C30.9801 20.9566 31.1442 20.8203 31.3886 20.6721L34.6162 21.377L34.6535 21.4543L34.4867 21.6794C34.0699 21.6774 33.6502 21.6025 33.2372 21.5482L30.792 21.1715Z" fill="#FEFEFE"/>
  <path d="M27.8832 43.1243C29.0264 43.6467 30.0521 44.2642 31.1174 44.9257C31.4184 45.1126 31.7642 45.2762 32.0296 45.5085L31.9015 45.4961L29.0704 44.2517C28.6433 44.0658 28.2 43.8162 27.7504 43.7036L27.7036 43.6928C27.7429 43.4996 27.8195 43.3109 27.8832 43.1243Z" fill="#FEFEFE"/>
  <path d="M27.4476 44.7529L32.0205 47.1369L31.9163 47.141L27.2683 45.2289L27.4476 44.7529Z" fill="#FEFEFE"/>
  <path d="M49.5321 48.7344L49.6273 48.7151C49.7826 48.7824 49.8566 48.8468 49.9656 48.9753C49.7981 50.5529 48.9316 52.1528 47.9139 53.3379L47.7774 53.4947L47.7417 53.4888C48.6223 52.067 49.3017 50.3965 49.5321 48.7344Z" fill="#FEFEFE"/>
  <path d="M48.572 48.6316L48.7159 48.6294C48.5243 49.153 48.3859 49.6945 48.1753 50.2116C47.5739 51.6881 46.4962 52.8618 45.1283 53.6686L45.0212 53.6751C45.2402 53.4491 45.5071 53.2704 45.7441 53.063C46.1001 52.7518 46.4392 52.4023 46.7261 52.0258C47.255 51.3314 47.6023 50.5806 47.9254 49.7751C48.0444 49.4781 48.1568 49.0587 48.3333 48.7963C48.3903 48.7116 48.4839 48.6745 48.572 48.6316Z" fill="#FEFEFE"/>
  <path d="M47.9465 17.6599C48.5778 17.7032 49.2282 17.7212 49.8324 17.9299C50.0478 18.0043 50.2204 18.066 50.324 18.281C50.3031 18.5456 50.2488 18.7572 50.0616 18.9526C49.2919 18.6209 48.3912 18.5198 47.5742 18.3577C47.6672 18.1069 47.808 17.8872 47.9465 17.6599Z" fill="#FEFEFE"/>
  <path d="M45.6069 15.6009L45.6157 15.4903L45.7827 15.6337C45.8826 15.5542 45.9859 15.578 46.1107 15.5738L45.7963 15.248L45.8412 15.1567C46.3528 15.6731 46.7393 16.1808 47.1387 16.7863C47.265 16.6461 47.4915 16.5684 47.6627 16.4843L48.5979 15.9863L48.8503 16.1228L48.6917 16.276L48.7565 16.4808C48.6371 16.6434 48.5121 16.6655 48.3395 16.7384L48.2642 16.7768C48.1943 16.8118 48.1564 16.825 48.0825 16.8394C47.8901 16.8768 47.6969 16.9673 47.5171 17.0468L47.2415 17.2121L46.9739 17.3927L46.9453 17.6174C46.9134 17.688 46.9353 17.6522 46.874 17.7209C46.6256 17.4818 46.3395 17.1886 46.2052 16.8685C46.1671 16.7805 46.1352 16.7451 46.0709 16.6766L46.4124 16.522C46.2821 16.1983 45.8487 15.8623 45.6069 15.6009Z" fill="#101A6C"/>
  <path d="M46.2051 16.8684L46.4636 16.6846C46.693 16.8321 46.8472 17.3624 46.9451 17.6172C46.9132 17.6879 46.9351 17.6521 46.8739 17.7208C46.6254 17.4816 46.3393 17.1885 46.2051 16.8684Z" fill="#FEFEFE"/>
  <path d="M49.2666 21.1061C48.6419 20.9711 47.9764 20.6002 47.3281 20.6438C47.0696 20.6612 46.8457 20.6663 46.6228 20.5164C46.5595 20.3229 46.6746 20.0202 46.7207 19.8229C47.6086 19.7575 48.6832 19.9152 49.5195 20.2371C49.5142 20.5917 49.482 20.8184 49.2666 21.1061Z" fill="#FEFEFE"/>
  <path d="M46.9472 18.7056C47.7105 18.6804 48.3452 18.7784 49.085 18.9457C49.3283 19.0007 49.6361 19.039 49.8302 19.2068C49.9451 19.3061 49.9446 19.3468 49.9679 19.4884C49.9095 19.665 49.853 19.7621 49.7268 19.8996C49.6687 19.9125 49.6474 19.9204 49.5912 19.923C49.4363 19.9299 49.2621 19.864 49.1106 19.8281L48.1829 19.6219C47.8011 19.5448 47.4142 19.5075 47.0284 19.4562C46.9221 19.442 46.7802 19.4499 46.7 19.378C46.757 19.1305 46.8349 18.9327 46.9472 18.7056Z" fill="#FEFEFE"/>
  <path d="M51.1628 52.0095L53.0703 54.3339L52.2581 54.2689L50.2842 54.0952C50.7191 53.4234 50.9405 52.7694 51.1628 52.0095Z" fill="#AC2242"/>
  <path d="M49.7204 20.2768L50.0896 19.8713C50.1352 19.8188 50.1622 19.7727 50.1795 19.7045C50.2281 19.5128 50.1985 19.3037 50.2502 19.1083C50.3139 18.8669 50.5039 18.5172 50.4756 18.2742C50.4638 18.1731 50.4117 18.0753 50.3637 17.9873C50.4479 18.0244 50.5025 18.0626 50.5755 18.1173L50.7527 18.1008C50.9788 18.3379 51.1096 18.8488 51.1058 19.1673C51.0948 20.0752 50.5162 21.1531 49.856 21.7652C49.5919 22.0101 49.3172 22.2047 49.0071 22.3861C49.0867 22.1948 49.1814 21.9971 49.2349 21.7971C49.2922 21.5828 49.2958 21.4103 49.4415 21.2278L49.4576 21.2188C49.752 20.9033 49.7564 20.6765 49.7204 20.2768Z" fill="#FEFEFE"/>
  <path d="M28.0711 4.83485C28.5668 4.77482 29.0677 4.82282 29.5566 4.90969C28.1028 5.04951 26.3527 5.21951 25.1966 6.21903C24.2794 7.01201 24.2715 8.09127 24.187 9.20963C24.1876 9.38182 24.1967 9.55184 24.1565 9.72053L23.3518 9.95582C23.3803 8.83728 23.6196 7.45815 24.3404 6.56351C25.3422 5.32007 26.5423 4.99582 28.0711 4.83485Z" fill="#FEFEFE"/>
  <path d="M49.2191 13.3569C49.4526 13.2606 49.6764 13.1739 49.9231 13.1148C50.0595 12.981 50.1336 12.8548 50.3441 12.8743C50.7046 12.9077 51.1342 13.396 51.3215 13.6725C51.8769 14.4929 52.1795 15.6933 51.9611 16.6715C51.8829 17.0223 51.7409 17.2835 51.5006 17.5491L51.4169 17.5351C51.281 17.2135 51.2791 16.94 51.3734 16.6099C51.5282 16.0676 51.5241 15.3782 51.2329 14.8834C51.0861 14.6213 50.7198 13.9604 50.4358 13.8655C50.0101 13.7234 49.3068 13.767 48.9045 13.9597C48.7515 13.9231 48.7165 13.8634 48.6074 13.7534L48.6101 13.6708L49.2191 13.3569Z" fill="#FEFEFE"/>
  <path d="M43.266 41.5386C43.2951 41.5557 43.3292 41.5662 43.3532 41.59C43.437 41.6727 43.5688 42.3297 43.6087 42.4669C43.821 43.197 44.0805 43.9154 44.3699 44.6183C44.7071 45.437 45.0899 46.2432 45.5271 47.0131L46.5278 48.6294C46.6557 48.8301 46.8895 49.099 46.9451 49.3266C46.9649 49.408 46.8687 49.5343 46.8297 49.6082L46.7779 49.5945C45.0662 47.8883 44.0468 45.7695 43.4004 43.4541C43.2611 42.9551 43.0058 41.9984 43.266 41.5386Z" fill="#FEFEFE"/>
  <path d="M34.771 21.8901C34.8851 21.7393 35.0173 21.5594 35.1764 21.4546C35.4862 21.2506 35.9222 21.1131 36.2609 20.9533L38.6908 19.7632L42.0088 18.0646C42.7488 17.6671 43.6059 17.037 44.4145 16.812L44.6567 17.007C44.0272 17.3066 43.447 17.7283 42.84 18.0735L38.7663 20.2585C37.4615 20.9161 36.2056 21.571 34.771 21.8901Z" fill="#FEFEFE"/>
  <path d="M32.3612 7.80877C32.5226 7.79932 32.7096 7.77269 32.8662 7.81248C32.964 7.83734 33.0278 7.94458 33.0687 8.03124C33.3119 8.54593 33.3943 9.28834 33.4473 9.85283C33.4646 10.0364 33.4999 10.2665 33.4303 10.4421C33.3198 10.7212 32.7903 10.8324 32.5227 10.9359L32.4278 10.9471C32.3062 10.9541 32.2298 10.9386 32.1419 10.8562C32.0313 10.7526 31.9444 10.6381 31.8943 10.4935C31.7376 10.0417 31.6726 9.51495 31.5668 9.04671C31.5009 8.75528 31.3748 8.48122 31.3647 8.18054C31.6623 7.91577 31.9829 7.873 32.3612 7.80877Z" fill="#FBCA57"/>
  <path d="M32.6242 34.9213C32.1542 34.3855 31.7374 33.7919 31.3157 33.2171L28.6857 29.2763C27.9802 28.1262 27.3018 26.9429 26.4802 25.8706C27.0481 26.1116 27.5188 26.3509 28.1329 26.4726C28.4022 27.2454 28.7787 27.998 29.1303 28.7365C29.7028 29.9386 30.2987 31.1241 30.9863 32.2652L32.055 33.9821C32.2478 34.2823 32.5075 34.583 32.6242 34.9213Z" fill="#FEFEFE"/>
  <path d="M27.1405 46.3132L32.5263 48.7999C32.1975 48.7986 31.712 48.5545 31.3975 48.4485L27.5629 47.0515L27.1479 49.0569L26.4227 52.0011C26.3417 52.3532 26.058 53.9971 25.8527 54.2131C25.7024 54.215 25.5389 54.258 25.4241 54.157L27.1405 46.3132Z" fill="#FEFEFE"/>
  <path d="M24.1692 52.7094C23.8722 52.727 23.5903 52.8039 23.2978 52.8497C22.6977 52.9435 22.0709 53.0085 21.4636 53.0242C21.1406 53.0325 20.8169 53.0568 20.5119 52.9309C20.0338 52.7334 19.58 52.396 19.1277 52.1411C19.3832 51.9451 19.8909 51.8575 20.2055 51.7709C21.65 51.3737 23.0889 51.0887 24.5733 50.8855L24.2822 52.2137C24.2516 52.3497 24.2295 52.5903 24.1692 52.7094Z" fill="#44549B"/>
  <path d="M43.157 38.3003C43.177 38.3203 43.1804 38.3521 43.1892 38.379L42.9228 38.9205C41.8117 41.0195 39.9561 42.8479 38.155 44.3649C37.0716 45.2774 35.9321 46.1964 34.5595 46.6202C34.5577 46.3193 34.5609 46.0221 34.5857 45.722C34.5892 45.6789 34.5926 45.5098 34.6068 45.4813C34.6288 45.4371 35.1629 45.2239 35.2319 45.1938C35.9906 44.8617 36.6664 44.416 37.3375 43.9347C38.798 42.8873 40.3201 41.7302 41.543 40.4103C42.1505 39.7547 42.6657 39.0444 43.157 38.3003Z" fill="#FEFEFE"/>
  <path d="M44.5053 21.6484C44.7848 21.8385 45.1094 21.9927 45.4171 22.1325L46.1791 21.7158C46.3295 21.8678 46.4959 22.0374 46.6132 22.2174C46.8197 22.5343 46.8743 22.753 47.1752 23.0121L47.2318 23.0599C46.9618 23.5656 46.6873 23.959 46.3071 24.3915C46.0519 24.6266 45.8122 24.819 45.5113 24.9924L43.7827 24.2173C43.8446 23.2344 44.0701 22.5302 44.5053 21.6484Z" fill="#F14749"/>
  <path d="M33.2235 13.1662L33.315 13.1592C33.5237 13.4508 33.5906 13.9804 33.6528 14.3403C33.9124 15.8412 33.3673 17.3232 32.5014 18.5366L30.8548 17.8294C30.3891 17.5908 30.0061 17.3425 29.6101 16.9976L31.0064 16.5204C31.2828 16.399 31.5507 16.2618 31.7729 16.0538C32.501 15.3717 32.8664 14.0747 33.2235 13.1662Z" fill="#F14749"/>
  <path d="M40.5082 18.0412L40.2701 18.07C40.1147 17.9214 40.0389 17.5817 39.9602 17.381L39.4726 16.2747C39.0336 15.3781 38.5056 14.5554 37.9297 13.7415C36.7561 13.5525 35.628 13.4765 34.4397 13.4993C35.6385 13.0444 37.0481 12.4844 38.3507 12.6589L38.4454 12.6725C38.614 12.6957 38.7771 12.7209 38.9404 12.7703C40.7237 13.3101 41.9928 15.1773 42.8205 16.7349L42.2852 17.0038C41.4532 15.5047 39.8483 14.5712 38.3651 13.8337C39.3846 15.1447 40.1459 16.3966 40.5082 18.0412Z" fill="#FEFEFE"/>
  <path d="M47.7233 12.9527L47.8476 12.8252L48.4123 13.5205C48.6232 13.4143 48.8458 13.2759 49.0659 13.1952L49.2191 13.3569L48.6101 13.6708L48.6074 13.7534C48.7165 13.8634 48.7514 13.9231 48.9045 13.9597L49.0033 14.0258L49.0245 14.1714L49.0501 14.1583L49.66 14.7351L50.1655 14.6633L50.668 14.7444L50.847 14.7459L51.0009 15.0056C50.5866 15.013 50.1409 14.9881 49.7344 15.0672L49.6212 15.1708L49.6576 15.2517C49.6941 15.3352 49.7076 15.4033 49.714 15.4947C49.4549 15.7258 48.9284 15.8211 48.5976 15.9862L47.6624 16.4841C47.4912 16.5682 47.2647 16.6459 47.1384 16.7862C46.739 16.1807 46.3525 15.673 45.8409 15.1566C45.7347 14.9945 45.5577 14.7797 45.5691 14.5797C45.5923 14.1722 46.111 13.7001 46.4121 13.4495C46.549 13.3355 46.6907 13.1827 46.8747 13.2152C47.1883 13.2705 47.393 13.1405 47.6609 12.9886L47.7233 12.9527Z" fill="#FEFEFE"/>
  <path d="M47.7234 12.9527L47.8477 12.8252L48.4125 13.5205C48.6233 13.4143 48.846 13.2759 49.066 13.1952L49.2192 13.3569L48.6102 13.6708L48.6075 13.7534C48.7166 13.8634 48.7516 13.9231 48.9046 13.9597L49.0034 14.0258L49.0246 14.1714L49.0502 14.1583L49.6601 14.7351L50.1656 14.6633L50.6681 14.7444C50.3614 14.7973 50.1083 14.8535 49.8223 14.9804L49.7349 15.0183L49.6828 15.042C49.5461 15.0348 49.5272 15.0155 49.4133 14.9359C49.2555 14.737 49.1079 14.5199 48.8993 14.3719C48.4196 14.102 47.9759 13.4416 47.7234 12.9527Z" fill="#101A6C"/>
  <path d="M41.812 33.1584L41.9919 33.1611C41.9151 33.1899 41.8408 33.2182 41.7606 33.236C39.0983 33.8253 36.9841 35.7138 35.2057 37.6801C34.3064 38.6744 33.4596 39.7104 32.6819 40.8028C32.1232 41.5876 31.6755 42.4865 31.0769 43.2346C30.917 43.2818 30.839 43.2133 30.6883 43.15L30.0576 42.8459L31.4983 40.459C33.7764 37.3048 37.8862 33.7904 41.812 33.1584Z" fill="#FEFEFE"/>
  <path d="M28.5805 25.4818L28.5444 25.5593C27.9029 25.4345 27.3111 25.1837 26.7237 24.9016C25.8715 24.4922 25.1305 24.0774 24.5373 23.3262C23.8229 22.4218 23.3742 21.3333 23.522 20.1679C23.6122 19.4567 23.9807 18.8834 24.5413 18.4549C25.0934 18.033 25.7502 17.6602 26.4676 17.779C26.6306 17.8059 26.8439 17.8609 26.9463 17.9978C26.7081 18.1256 26.4452 18.195 26.2059 18.3242C25.8833 18.4981 25.6336 18.7248 25.373 18.9767L31.0253 20.4968C30.8283 20.6231 30.5909 20.8152 30.3665 20.879L30.2901 20.8988L24.8251 19.8613C24.4581 20.696 24.2049 21.4767 24.56 22.3668C25.1323 23.8018 27.0564 24.8825 28.4225 25.4247L28.5805 25.4818Z" fill="#FEFEFE"/>
  <path d="M51.0958 12.4839L50.4375 12.0985C51.2207 10.7438 52.3207 9.52489 53.2736 8.28424L58.8175 1.02539L59.3677 1.80943L57.3791 4.39347L54.297 8.42767L51.9631 11.4081C51.677 11.7602 51.4071 12.1559 51.0958 12.4839Z" fill="#FEFEFE"/>
  <path d="M30.4153 10.3908L30.523 10.3892C30.5672 10.5039 30.7186 10.9892 30.6949 11.0876C30.6775 11.1597 30.4464 11.3721 30.3874 11.4357L29.0764 12.8011C28.8912 12.9768 28.2959 13.4007 28.2451 13.6032C28.3268 13.7187 28.3714 13.7815 28.4997 13.8498C28.7682 13.7027 29.0022 13.4551 29.2272 13.2479C29.789 12.73 30.3116 12.184 30.813 11.6079L30.9852 13.3695C30.9968 13.5048 31.0615 13.7877 31.0334 13.9117C31.0236 13.9551 30.9038 14.0856 30.8742 14.1251L30.3916 14.7702C30.0021 15.2865 29.4867 15.9786 28.9342 16.3174C28.4111 16.6382 27.6759 16.8416 27.074 16.9252C26.7173 16.5238 26.3978 16.1107 26.1174 15.6522L27.4419 15.3207C27.7816 15.2306 28.2792 15.1183 28.558 14.9022C28.6521 14.8294 28.6667 14.8219 28.6852 14.7015C28.5126 14.6509 28.3312 14.7335 28.1621 14.7761L27.0528 15.0215C26.6379 15.0963 26.2255 15.1444 25.8055 15.1792L25.1675 14.2536C26.2168 13.8943 27.2668 13.7287 28.2684 13.2211L24.9868 13.7527C24.7347 13.1927 24.5698 12.6413 24.468 12.0357C25.1603 11.9397 25.865 11.7375 26.5432 11.5658C27.8557 11.2336 29.147 10.8674 30.4153 10.3908Z" fill="#FEFEFE"/>
  <path d="M59.3677 1.80933C59.9077 2.83453 60.0028 4.43808 59.8311 5.57594C59.4473 6.13948 58.9523 6.64514 58.507 7.16273L56.1772 9.8768L53.6784 12.8832C53.2624 13.3885 52.8741 13.924 52.4281 14.4026C52.1401 13.7343 51.7486 12.8822 51.0957 12.4838C51.407 12.1558 51.6769 11.7601 51.963 11.408L54.2968 8.42754L57.379 4.39334L59.3677 1.80933Z" fill="#FBCA57"/>
  <path d="M33.6183 51.3398L32.6107 54.0727L31.6799 54.0922C32.1698 52.5933 32.6822 51.0263 33.327 49.5886C33.6195 48.9363 33.9886 48.3207 34.3137 47.6843C34.5378 47.594 34.7734 47.5472 34.9985 47.4542C35.7648 47.1374 36.4689 46.7666 37.1756 46.334C38.6271 48.4331 40.294 50.2443 42.1469 51.9928L43.5036 53.2385C43.7707 53.4736 44.0697 53.6983 44.3131 53.9564L43.2947 53.9507C43.2555 53.9504 43.0362 53.9647 43.0097 53.949C42.8334 53.8444 42.6358 53.5851 42.4722 53.444L40.0856 51.3504L33.6183 51.3398Z" fill="#FEFEFE"/>
  <path d="M34.7412 48.9272C34.8199 48.802 34.9121 48.6408 35.0342 48.553C35.2613 48.3897 35.5893 48.3143 35.8432 48.1906C36.2012 48.0164 36.5291 47.7574 36.8372 47.5071L37.9667 48.9652L34.7412 48.9272Z" fill="#FBCA57"/>
  <path d="M34.7411 48.9272L37.9666 48.9652L40.0857 51.3504L33.6184 51.3398L34.7411 48.9272Z" fill="#EC7A3B"/>
  <path d="M44.6567 17.0071C45.248 17.587 45.6246 18.2251 45.9003 19.0032C45.0224 19.7833 44.0362 20.4201 43.0866 21.1074L37.7286 24.7955C37.5303 24.9194 37.1527 25.2195 36.942 25.2701C36.7956 25.3052 36.5515 25.2754 36.3975 25.2769L35.1524 25.2763L29.3092 25.2061L29.2611 25.1775C29.22 23.5971 29.8701 22.4141 30.792 21.1715L33.2371 21.5481C33.6502 21.6024 34.0699 21.6773 34.4866 21.6794L33.932 22.9936C34.2407 22.6565 34.4571 22.2001 34.771 21.8902C36.2056 21.571 37.4615 20.9162 38.7663 20.2586L42.84 18.0737C43.447 17.7284 44.0272 17.3066 44.6567 17.0071Z" fill="#F14749"/>
  <path d="M24.2859 25.7832C25.7418 28.3565 27.1257 30.9353 28.9117 33.3042C29.4217 33.9806 29.947 34.6548 30.5163 35.2824L31.5317 36.3569C31.6895 36.5227 31.8938 36.6963 32.0053 36.8938C31.2145 37.7228 30.4807 38.5632 29.8291 39.5082L29.1539 40.5438C29.0347 40.7341 28.9214 40.9609 28.7699 41.1246C28.1842 41.0251 27.5617 40.9258 27.0343 41.2815L26.8902 41.3892C26.2791 42.0182 26.0676 42.7131 25.8287 43.5324L25.2714 45.852L25.1521 37.1182C25.1003 36.7317 25.1244 36.3177 25.121 35.9273L25.1026 33.8561C25.0996 33.5759 25.16 33.0841 25.0302 32.8354L24.3653 49.1769L23.356 49.4104L23.2052 37.4523L23.1648 33.7391C23.1567 32.9057 23.1723 32.0686 23.0728 31.2399C22.9955 31.8117 23.0075 32.39 22.9908 32.9657L22.9317 36.5573L22.8037 49.4966L21.3632 49.8228L21.1266 30.6419C20.8522 31.052 20.7918 48.1129 20.7871 49.9472L19.4023 50.3676L19.1115 32.0298C18.9404 33.6314 18.9695 35.2609 18.9352 36.8705L18.818 46.1371L18.7999 49.1048C18.7994 49.5702 18.8556 50.121 18.782 50.5756L18.1505 50.8681C17.7828 50.1604 17.5119 49.3876 17.2617 48.6314C16.2862 45.6827 15.9679 42.5138 16.3665 39.4307C16.8843 35.4258 18.4657 31.6881 21.1498 28.6496C22.0898 27.5854 23.1632 26.649 24.2859 25.7832Z" fill="url(#paint0_linear_9_775)"/>
  <defs>
    <linearGradient id="paint0_linear_9_775" x1="31.9675" y1="37.0374" x2="15.6648" y2="38.9912" gradientUnits="userSpaceOnUse">
      <stop stop-color="#FE9F30"/>
      <stop offset="1" stop-color="#E05C51"/>
    </linearGradient>
  </defs>
</svg>