<svg xmlns="http://www.w3.org/2000/svg" width="28" height="28" viewBox="0 0 28 28" fill="none">
  <path d="M14.002 14.5397C18.002 14.5397 21.2718 11.2699 21.2718 7.26985C21.2718 3.26983 18.002 0 14.002 0C10.0019 0 6.73218 3.26983 6.73218 7.26985C6.73218 11.2699 10.002 14.5397 14.002 14.5397Z" fill="#131313" fill-opacity="0.8"/>
  <path d="M26.4781 20.3493C26.2876 19.8731 26.0337 19.4286 25.7479 19.0159C24.2876 16.8572 22.0337 15.4286 19.494 15.0794C19.1766 15.0477 18.8274 15.1111 18.5734 15.3016C17.24 16.2858 15.6528 16.7937 14.0019 16.7937C12.3511 16.7937 10.7638 16.2858 9.43047 15.3016C9.17648 15.1111 8.82727 15.0159 8.50984 15.0794C5.97015 15.4286 3.68446 16.8572 2.2559 19.0159C1.97019 19.4286 1.7162 19.9049 1.52576 20.3493C1.43054 20.5398 1.46226 20.762 1.55748 20.9525C1.81147 21.3969 2.1289 21.8414 2.41462 22.2223C2.85904 22.8255 3.33525 23.3652 3.87495 23.8731C4.31938 24.3175 4.82731 24.7302 5.33529 25.1429C7.8432 27.016 10.8591 28.0001 13.9702 28.0001C17.0813 28.0001 20.0972 27.0159 22.6051 25.1429C23.113 24.762 23.621 24.3175 24.0655 23.8731C24.5734 23.3652 25.0813 22.8255 25.5258 22.2223C25.8432 21.8096 26.129 21.3969 26.3829 20.9525C26.5416 20.762 26.5733 20.5397 26.4781 20.3493Z" fill="#131313" fill-opacity="0.8"/>
</svg>